# xmcd
#
# Track frame offsets:
# 150
# 22767
# 41765
# 55217
# 70110
# 84032
# 101387
# 120157
# 133717
#
# Disc length: 1990 seconds
#
#
# Revision: 4
# Processed by: cddbd v1.5PL3 Copyright (c) Steve Scherf et al.
# Submitted via: FreeRIP 2.60 
#
DISCID=6107c409
DTITLE=Wild Cherry - Wild Cherry
DYEAR=1976
DGENRE=Funk
TTITLE0=Play That Funky Music
TTITLE1=The Lady Wants Your Money
TTITLE2=99 1/2
TTITLE3=Don't Go Near The Water
TTITLE4=Nowhere To Run
TTITLE5=I Feel Sanctified
TTITLE6=Hold On
TTITLE7=Get It Up
TTITLE8=What In The Funk Do You See
EXTD=
EXTT0=
EXTT1=
EXTT2=
EXTT3=
EXTT4=
EXTT5=
EXTT6=
EXTT7=
EXTT8=
PLAYORDER=
